<!DOCTYPE svg PUBLIC "-//W3C//DTD SVG 1.1//EN" "http://www.w3.org/Graphics/SVG/1.1/DTD/svg11.dtd">
<!-- Uploaded to: SVG Repo, www.svgrepo.com, Transformed by: SVG Repo Mixer Tools -->
<svg width="800px" height="800px" viewBox="0 0 24 24" xmlns="http://www.w3.org/2000/svg" fill="none">
<g id="SVGRepo_bgCarrier" stroke-width="0"/>
<g id="SVGRepo_tracerCarrier" stroke-linecap="round" stroke-linejoin="round"/>
<g id="SVGRepo_iconCarrier">
<path stroke="#9369ce" stroke-linecap="round" stroke-linejoin="round" stroke-width="2" d="M6 10a3 3 0 1 0 0-6 3 3 0 0 0 0 6zm0 0v10m12-6a3 3 0 1 0 0 6 3 3 0 0 0 0-6zm0 0V9a2 2 0 0 0-2-2h-1m-2 0 2-2v2m-2 0h2m-2 0 2 2V7"/>
</g>
</svg>